<svg xmlns="http://www.w3.org/2000/svg" viewBox="0 0 551.22 517.71">
  <defs><style>.cls-1{fill:#d77875;}.cls-2{fill:#c75a1f;}.cls-3{fill:#d26865;}</style></defs>
  <path class="cls-1" d="M1300,557c.11-.85.21-1.7.31-2.55C1302,555.52,1302,556.38,1300,557Z" transform="translate(-750.33 -253.87)"/><path class="cls-1" d="M1299,562.5l.39-2C1301,561.48,1300.59,562.1,1299,562.5Z" transform="translate(-750.33 -253.87)"/>
  <path class="cls-2" d="M1074.5,762.91c-9.77,2-19.47,4.42-29.31,6a243,243,0,0,1-45.58,2.55,249.7,249.7,0,0,1-49.35-6.62,257.2,257.2,0,0,1-108.51-54.62C810.82,684,787.55,652.13,771.43,615a256.12,256.12,0,0,1-19-70.07,259.53,259.53,0,0,1-1.73-45.35A252.76,252.76,0,0,1,759.58,444a259.56,259.56,0,0,1,39.28-82.23c.33-.47.73-.9,1.1-1.34.37.42,1,.83,1.07,1.27.12,2.88,1.38,5.36,2.51,7.89a.46.46,0,0,1-.21.4c-1.85-.06-1.89,1.2-1.82,2.53-.38.64-.73,1.3-1.14,1.92a249.35,249.35,0,0,0-41.55,148A257.17,257.17,0,0,0,764,564.79,250.42,250.42,0,0,0,982.67,762.41a226.71,226.71,0,0,0,38.9,1c8-.53,15.94-1.23,23.84-2.35,7.73-1.1,15.37-2.82,23-4.27.43.4.87.78,1.28,1.2C1071.33,759.65,1072.91,761.28,1074.5,762.91Z" transform="translate(-750.33 -253.87)"/>
  <path class="cls-2" d="M1045.5,256.49c6.87,1.21,13.79,2.16,20.59,3.67a254.25,254.25,0,0,1,64.86,24.1,262.11,262.11,0,0,1,46.85,32.19,255.73,255.73,0,0,1,46.08,52,261.13,261.13,0,0,1,28,55.08,250.33,250.33,0,0,1,12.58,48.71,228.3,228.3,0,0,1,3,39.25,23,23,0,0,1-2.84-1.06c-1.76-.92-3.47-1.95-5.2-2.93a27.34,27.34,0,0,1-.36-3,233.32,233.32,0,0,0-5.16-43,250.89,250.89,0,0,0-184.14-191.42c-7.71-2-15.56-3.34-23.36-5C1046.16,262.22,1045.83,259.36,1045.5,256.49Z" transform="translate(-750.33 -253.87)"/>
  <path class="cls-2" d="M1259.5,507.5c1.73,1,3.44,2,5.2,2.93a23,23,0,0,0,2.84,1.06c-.54,10.29-.65,20.62-1.69,30.86a254.82,254.82,0,0,1-38.47,108.83c-5.53,8.49-11.75,16.54-17.67,24.77a16.67,16.67,0,0,1-1.52,1.63l-7.3-3c3.15-4.08,6.4-8.09,9.43-12.26,18.52-25.49,32.27-53.29,40.45-83.79a240.49,240.49,0,0,0,7.56-41.88C1259.15,527,1259.14,517.22,1259.5,507.5Z" transform="translate(-750.33 -253.87)"/>
  <path class="cls-2" d="M1200.88,674.58l7.31,3a230.74,230.74,0,0,1-31.25,31.87,251.69,251.69,0,0,1-21.21,16.24c-25.09,16.67-51.77,30-81.23,37.22-1.59-1.63-3.17-3.26-4.76-4.88-.41-.42-.85-.8-1.28-1.2,23.08-6.13,45.15-14.67,65.83-26.76,16.08-9.39,31.21-20.06,44.68-32.93C1186.55,689.91,1193.6,682.12,1200.88,674.58Z" transform="translate(-750.33 -253.87)"/>
  <path class="cls-2" d="M803.54,369.59c-1.13-2.53-2.39-5-2.51-7.89,0-.44-.7-.85-1.07-1.27,4.93-6.28,9.59-12.78,14.83-18.78a255.23,255.23,0,0,1,71.73-57c7.37-4,15.18-7.16,22.79-10.71a7.89,7.89,0,0,1,1.1,2.39c.17,2.07.08,4.15.09,6.23a17.36,17.36,0,0,1-1.52.85,243.88,243.88,0,0,0-54.83,32.83,225.23,225.23,0,0,0-33.06,31.39C815.05,354.75,809.38,362.24,803.54,369.59Z" transform="translate(-750.33 -253.87)"/>
  <path class="cls-2" d="M910.5,282.51c0-2.08.08-4.16-.09-6.23a7.89,7.89,0,0,0-1.1-2.39c4-1.62,8-3.37,12-4.81A261.44,261.44,0,0,1,980,255.4a294.74,294.74,0,0,1,42.63-1.31c5.14.18,10.26,1,15.39,1.46l.81.88.7-.76,6,.82c.33,2.87.66,5.73,1,8.6-9.69-.84-19.38-2.27-29.08-2.38a288.55,288.55,0,0,0-36.14,1.49A261.75,261.75,0,0,0,945,271C933.32,274.06,922,278.61,910.5,282.51Z" transform="translate(-750.33 -253.87)"/>
  <path class="cls-1" d="M1039.51,255.67l-.7.76-.81-.88Z" transform="translate(-750.33 -253.87)"/>
  <path class="cls-3" d="M803.33,370c-.61.84-1.22,1.68-1.82,2.53C801.44,371.19,801.48,369.93,803.33,370Z" transform="translate(-750.33 -253.87)"/>
  <path class="cls-2" d="M1023.75,486.07h2.49q48.88,0,97.75,0a5.29,5.29,0,0,1,4.16,1.67q9,9.07,18.1,18a5,5,0,0,1,1.6,3.93q-.07,27.12,0,54.24a5.46,5.46,0,0,1-1.77,4.38c-6,5.87-11.93,11.89-18,17.72a6.24,6.24,0,0,1-3.87,1.57c-20.25.09-40.5.06-60.75.06h-3.17v39.36h-36.55Zm36.75,31.14v39.23h50.34V517.21Z" transform="translate(-750.33 -253.87)"/>
  <path class="cls-2" d="M871.6,486.18c.89,0,1.7-.1,2.51-.1q49,0,98,.05a5.84,5.84,0,0,1,3.66,1.46q9.33,9,18.39,18.37a5.06,5.06,0,0,1,1.31,3.22q.12,27.75,0,55.49a4.78,4.78,0,0,1-1.19,3q-9.18,9.39-18.57,18.55a5.54,5.54,0,0,1-3.5,1.27c-20.32.07-40.65.05-61,.05h-3V626.9H871.6Zm36.61,70.24h50.54V517.25H908.21Z" transform="translate(-750.33 -253.87)"/>
  <path class="cls-2" d="M964.73,309c5.12,2.78,10.12,5.57,15.21,8.2a4.49,4.49,0,0,0,3.18.25,82,82,0,0,0,8.53-3.49,3.81,3.81,0,0,0,1.74-2.15c1.48-4.76,2.83-9.56,4.19-14.35.37-1.31.87-2.08,2.52-2.06,7.58.11,15.16.1,22.74,0a2.26,2.26,0,0,1,2.57,2c1.34,4.8,2.67,9.6,4.21,14.34a4.91,4.91,0,0,0,2.39,2.43c1.92,1,4.2,1.29,6,2.42,2.62,1.68,4.69,1,7.06-.43,3.76-2.29,7.7-4.29,11.52-6.49a1.94,1.94,0,0,1,2.79.39q8,8.1,16.07,16.08a2.27,2.27,0,0,1,.49,3.25q-4,6.79-7.64,13.74a3.77,3.77,0,0,0-.08,2.71c.57,1.73,1.88,3.31,2.08,5.05.53,4.44,3.61,5.6,7.2,6.52s6.84,2,10.3,2.93c1.6.42,2.31,1.09,2.28,2.89-.1,7.41-.08,14.83,0,22.24a2.42,2.42,0,0,1-2.08,2.8c-4.65,1.29-9.23,2.78-13.87,4.07a3.51,3.51,0,0,0-2.77,2.8,18,18,0,0,1-1.86,5.14c-1.75,2.78-1.36,5.15.27,7.81,2.13,3.47,3.86,7.18,5.9,10.7,1,1.69,1,2.87-.51,4.34-5.26,5.1-10.41,10.32-15.53,15.57a2.21,2.21,0,0,1-3.18.5q-6.72-3.84-13.58-7.42a3.65,3.65,0,0,0-2.7-.09c-3,1.21-6,2.52-8.84,4a4.28,4.28,0,0,0-1.72,2.46c-1.67,5.65-3.21,11.33-4.83,17.13H998.28c-1.56-5.48-3.23-11-4.69-16.62a4.31,4.31,0,0,0-3-3.5,32.41,32.41,0,0,1-6.69-3.34,4,4,0,0,0-4.61,0c-4.2,2.37-8.51,4.56-12.69,7-1.39.8-2.3.84-3.47-.35q-8-8.1-16.08-16.07a2,2,0,0,1-.41-2.8c2.26-4.07,4.36-8.24,6.67-12.28,1.12-2,1.48-3.68.21-5.79s-2-4.57-3.26-6.72a5.19,5.19,0,0,0-2.65-2.25q-7.74-2.4-15.59-4.39c-1.52-.39-2-1-2-2.52.06-7.5.08-15,0-22.49a2.22,2.22,0,0,1,2-2.56c5.14-1.35,10.26-2.79,15.4-4.14a3.92,3.92,0,0,0,3-2.56,60.89,60.89,0,0,1,3.81-7.29,3.75,3.75,0,0,0,0-4.17c-2.42-4.27-4.67-8.64-7.07-12.92-.66-1.16-.9-2,.16-3.08C953.1,320.68,958.85,314.9,964.73,309Zm95.82,65.34a49.1,49.1,0,1,0-98.2-.08c-.14,27.15,22.29,49.24,49,49.32C1038.31,423.69,1061.1,401.43,1060.55,374.36Z" transform="translate(-750.33 -253.87)"/>
  <path class="cls-2" d="M1049.81,375.45a17.48,17.48,0,0,1-1.91,2.85c-5.13,5.23-10.33,10.39-15.52,15.56-1.46,1.45-3,2.49-5,.78-1.73-1.52-1.73-3.35.24-5.4,3.34-3.49,6.81-6.85,10.22-10.27,3.05-3.06,3-4.28-.09-7.42-3.35-3.36-6.72-6.7-10.06-10.07-2-2-2.09-3.61-.49-5.19a3.7,3.7,0,0,1,5.16.45q8.18,8.24,16.22,16.6A10.62,10.62,0,0,1,1049.81,375.45Z" transform="translate(-750.33 -253.87)"/>
  <path class="cls-2" d="M991,355c1,.84,2.46,1.45,2.68,2.35a4.81,4.81,0,0,1-.75,3.81c-3.42,3.74-7.11,7.24-10.69,10.84-2.94,2.94-2.93,4.05,0,7,3.47,3.48,7,6.93,10.4,10.42,1.67,1.68,1.86,3.76.54,5.06-1.49,1.47-3.18,1.35-5-.44q-7.95-7.92-15.88-15.88c-1.91-1.91-2-3.66-.06-5.62q7.79-7.92,15.7-15.7A16.34,16.34,0,0,1,991,355Z" transform="translate(-750.33 -253.87)"/>
  <path class="cls-2" d="M1017.73,357.61c-1.07,4.12-2,7.58-2.88,11-2.11,7.85-4.26,15.7-6.39,23.55-.81,3-2.41,4.31-4.4,3.54-1.83-.7-2.9-2-2.34-4.09q4.59-17,9.26-33.88c.54-2,1.87-3.2,3.83-2.6C1016,355.51,1016.89,356.86,1017.73,357.61Z" transform="translate(-750.33 -253.87)"/>
</svg>
